<mxfile host="app.diagrams.net" modified="2024-03-03T10:39:47.256Z" agent="Mozilla/5.0 (Windows NT 10.0; Win64; x64) AppleWebKit/537.36 (KHTML, like Gecko) Chrome/121.0.0.0 Safari/537.36" etag="e1ktRueDnUlOxif6lbGD" version="24.0.0" type="device">
  <diagram name="Page-1" id="wKS89Du8QZJM-eTlGHEp">
    <mxGraphModel dx="1519" dy="770" grid="1" gridSize="10" guides="1" tooltips="1" connect="1" arrows="1" fold="1" page="1" pageScale="1" pageWidth="827" pageHeight="1169" math="0" shadow="0">
      <root>
        <mxCell id="0" />
        <mxCell id="1" parent="0" />
        <mxCell id="IBe-RfNW93fMfm1N7mXL-7" value="" style="rounded=0;whiteSpace=wrap;html=1;fillColor=#dae8fc;strokeColor=#6c8ebf;movable=1;resizable=1;rotatable=1;deletable=1;editable=1;locked=0;connectable=1;" vertex="1" parent="1">
          <mxGeometry x="110" y="190" width="450" height="430" as="geometry" />
        </mxCell>
        <mxCell id="IBe-RfNW93fMfm1N7mXL-2" value="Diagramme d&#39;utilisation [Gestionnaire_Tache use_case]&amp;nbsp;" style="shape=umlFrame;whiteSpace=wrap;html=1;pointerEvents=0;width=340;height=30;" vertex="1" parent="1">
          <mxGeometry x="30" y="150" width="570" height="490" as="geometry" />
        </mxCell>
        <mxCell id="IBe-RfNW93fMfm1N7mXL-5" value="Utilisateur" style="shape=umlActor;verticalLabelPosition=bottom;verticalAlign=top;html=1;" vertex="1" parent="1">
          <mxGeometry x="60" y="380" width="30" height="60" as="geometry" />
        </mxCell>
        <mxCell id="IBe-RfNW93fMfm1N7mXL-9" value="&lt;p class=&quot;paragraphe&quot; style=&quot;font-size: 15px;&quot;&gt;&lt;b style=&quot;font-size: 15px;&quot;&gt;Ajout de Tâche&lt;/b&gt;&lt;/p&gt;" style="ellipse;whiteSpace=wrap;html=1;fontSize=15;verticalAlign=middle;" vertex="1" parent="1">
          <mxGeometry x="140" y="260" width="120" height="80" as="geometry" />
        </mxCell>
        <mxCell id="IBe-RfNW93fMfm1N7mXL-13" value="&lt;p class=&quot;paragraphe&quot; style=&quot;font-size: 15px;&quot;&gt;&lt;b style=&quot;font-size: 15px;&quot;&gt;Suppression de&lt;br style=&quot;font-size: 15px;&quot;&gt;Tâche&lt;/b&gt;&lt;/p&gt;" style="ellipse;whiteSpace=wrap;html=1;fontSize=15;verticalAlign=middle;" vertex="1" parent="1">
          <mxGeometry x="140" y="510" width="130" height="90" as="geometry" />
        </mxCell>
        <mxCell id="IBe-RfNW93fMfm1N7mXL-14" value="&lt;p class=&quot;paragraphe&quot; style=&quot;font-size: 15px;&quot;&gt;&lt;br style=&quot;font-size: 15px;&quot;&gt;&lt;br style=&quot;font-size: 15px;&quot;&gt;&lt;br style=&quot;font-size: 15px;&quot;&gt;&lt;/p&gt;&lt;p class=&quot;paragraphe&quot; style=&quot;font-size: 15px;&quot;&gt;&lt;b style=&quot;font-size: 15px;&quot;&gt;Modification de&lt;br style=&quot;font-size: 15px;&quot;&gt;Tâche&lt;/b&gt;&lt;/p&gt;&lt;p class=&quot;paragraphe&quot; style=&quot;font-size: 15px;&quot;&gt;&lt;br style=&quot;font-size: 15px;&quot;&gt;&lt;br style=&quot;font-size: 15px;&quot;&gt;&lt;/p&gt;" style="ellipse;whiteSpace=wrap;html=1;fontSize=15;verticalAlign=middle;" vertex="1" parent="1">
          <mxGeometry x="145" y="370" width="120" height="80" as="geometry" />
        </mxCell>
        <mxCell id="IBe-RfNW93fMfm1N7mXL-18" value="" style="endArrow=open;endFill=1;endSize=12;html=1;rounded=0;entryX=0;entryY=1;entryDx=0;entryDy=0;" edge="1" parent="1" target="IBe-RfNW93fMfm1N7mXL-9">
          <mxGeometry width="160" relative="1" as="geometry">
            <mxPoint x="90" y="410" as="sourcePoint" />
            <mxPoint x="230" y="330" as="targetPoint" />
          </mxGeometry>
        </mxCell>
        <mxCell id="IBe-RfNW93fMfm1N7mXL-19" value="" style="endArrow=open;endFill=1;endSize=12;html=1;rounded=0;entryX=0;entryY=0;entryDx=0;entryDy=0;" edge="1" parent="1" target="IBe-RfNW93fMfm1N7mXL-13">
          <mxGeometry width="160" relative="1" as="geometry">
            <mxPoint x="90" y="410" as="sourcePoint" />
            <mxPoint x="315" y="410" as="targetPoint" />
          </mxGeometry>
        </mxCell>
        <mxCell id="IBe-RfNW93fMfm1N7mXL-20" value="" style="endArrow=open;endFill=1;endSize=12;html=1;rounded=0;entryX=0;entryY=0.5;entryDx=0;entryDy=0;" edge="1" parent="1" source="IBe-RfNW93fMfm1N7mXL-5" target="IBe-RfNW93fMfm1N7mXL-14">
          <mxGeometry width="160" relative="1" as="geometry">
            <mxPoint x="95" y="400" as="sourcePoint" />
            <mxPoint x="250" y="350" as="targetPoint" />
          </mxGeometry>
        </mxCell>
        <mxCell id="IBe-RfNW93fMfm1N7mXL-21" value="include" style="endArrow=open;endSize=12;dashed=1;html=1;rounded=0;exitX=1;exitY=0.5;exitDx=0;exitDy=0;entryX=0;entryY=0.5;entryDx=0;entryDy=0;" edge="1" parent="1" source="IBe-RfNW93fMfm1N7mXL-9" target="IBe-RfNW93fMfm1N7mXL-22">
          <mxGeometry width="160" relative="1" as="geometry">
            <mxPoint x="295" y="240" as="sourcePoint" />
            <mxPoint x="415" y="310" as="targetPoint" />
          </mxGeometry>
        </mxCell>
        <mxCell id="IBe-RfNW93fMfm1N7mXL-22" value="&lt;p class=&quot;paragraphe&quot; style=&quot;font-size: 15px;&quot;&gt;&lt;b style=&quot;font-size: 15px;&quot;&gt;Connexion&lt;/b&gt;&lt;/p&gt;" style="ellipse;whiteSpace=wrap;html=1;fontSize=15;verticalAlign=middle;" vertex="1" parent="1">
          <mxGeometry x="400" y="240" width="110" height="60" as="geometry" />
        </mxCell>
        <mxCell id="IBe-RfNW93fMfm1N7mXL-23" value="&lt;p class=&quot;paragraphe&quot; style=&quot;font-size: 15px;&quot;&gt;&lt;b&gt;Inscription&lt;/b&gt;&lt;/p&gt;" style="ellipse;whiteSpace=wrap;html=1;fontSize=15;verticalAlign=middle;" vertex="1" parent="1">
          <mxGeometry x="400" y="320" width="110" height="60" as="geometry" />
        </mxCell>
        <mxCell id="IBe-RfNW93fMfm1N7mXL-24" value="include" style="endArrow=open;endSize=12;dashed=1;html=1;rounded=0;exitX=1;exitY=0.5;exitDx=0;exitDy=0;entryX=0;entryY=0.5;entryDx=0;entryDy=0;" edge="1" parent="1" source="IBe-RfNW93fMfm1N7mXL-9" target="IBe-RfNW93fMfm1N7mXL-23">
          <mxGeometry width="160" relative="1" as="geometry">
            <mxPoint x="295" y="240" as="sourcePoint" />
            <mxPoint x="445" y="250" as="targetPoint" />
          </mxGeometry>
        </mxCell>
      </root>
    </mxGraphModel>
  </diagram>
</mxfile>
